<?xml version="1.0" encoding="UTF-8"?>
<svg xmlns="http://www.w3.org/2000/svg" xmlns:xlink="http://www.w3.org/1999/xlink" width="32px" height="32px" viewBox="0 0 32 32" version="1.1">
<g id="surface1">
<path style=" stroke:none;fill-rule:evenodd;fill:rgb(0%,0%,0%);fill-opacity:1;" d="M 3.5 3.34375 C 2.367188 4.859375 1.292969 7.089844 0.882812 9.441406 C 0.835938 9.703125 0.601562 9.875 0.359375 9.824219 C 0.121094 9.773438 -0.0390625 9.519531 0.0078125 9.257812 C 0.449219 6.734375 1.597656 4.359375 2.808594 2.730469 C 3.414062 1.917969 4.050781 1.269531 4.652344 0.882812 C 5.21875 0.515625 5.910156 0.296875 6.46875 0.703125 C 6.71875 0.882812 6.933594 1.1875 7.125 1.527344 C 7.320312 1.878906 7.511719 2.320312 7.695312 2.824219 C 8.0625 3.839844 8.417969 5.152344 8.707031 6.632812 C 9.128906 8.792969 9.421875 11.339844 9.4375 13.871094 C 9.640625 13.839844 9.847656 13.808594 10.054688 13.789062 C 11.058594 13.675781 12.113281 13.6875 13.0625 13.785156 C 14 13.886719 14.863281 14.078125 15.460938 14.347656 C 15.941406 14.566406 16.667969 15.085938 17.503906 15.789062 C 18.304688 16.460938 19.238281 17.328125 20.203125 18.324219 C 20.933594 18.152344 21.613281 17.960938 22.261719 17.742188 C 22.222656 16.894531 22.210938 15.992188 22.222656 15.023438 C 22.222656 15.015625 22.222656 15.007812 22.222656 15 C 22.398438 11.917969 22.703125 9.574219 23.386719 7.433594 C 24.070312 5.289062 25.125 3.378906 26.765625 1.152344 C 26.917969 0.941406 27.199219 0.910156 27.390625 1.078125 C 27.582031 1.242188 27.613281 1.550781 27.457031 1.757812 C 25.859375 3.929688 24.867188 5.742188 24.226562 7.753906 C 23.582031 9.765625 23.285156 12.003906 23.109375 15.046875 C 23.101562 15.894531 23.109375 16.679688 23.136719 17.425781 C 25.921875 16.339844 28.121094 14.71875 30.824219 12.234375 C 31.011719 12.0625 31.292969 12.089844 31.449219 12.292969 C 31.609375 12.5 31.585938 12.804688 31.398438 12.976562 C 28.554688 15.589844 26.21875 17.296875 23.191406 18.429688 C 23.296875 19.964844 23.5 21.304688 23.820312 22.5625 C 24.230469 23.117188 24.625 23.683594 24.992188 24.253906 C 26.324219 26.320312 27.34375 28.5 27.550781 30.492188 C 27.574219 30.710938 27.457031 30.921875 27.269531 31 C 27.078125 31.078125 26.863281 31.003906 26.746094 30.824219 C 25.035156 28.152344 23.875 25.949219 23.160156 23.527344 C 23.109375 23.359375 23.0625 23.191406 23.015625 23.019531 C 22.042969 21.722656 20.972656 20.480469 19.929688 19.378906 C 18.570312 19.675781 17.0625 19.910156 15.34375 20.09375 C 13.203125 20.421875 10.796875 20.347656 8.949219 19.828125 C 8.894531 19.8125 8.839844 19.796875 8.785156 19.78125 C 8.332031 21.660156 7.6875 23.238281 6.769531 24.707031 C 5.402344 26.898438 3.445312 28.800781 0.714844 31.066406 C 0.519531 31.230469 0.238281 31.1875 0.0898438 30.976562 C -0.0585938 30.761719 -0.0195312 30.457031 0.175781 30.296875 C 2.890625 28.039062 4.75 26.214844 6.035156 24.160156 C 6.894531 22.785156 7.507812 21.292969 7.9375 19.472656 C 7.433594 19.253906 6.984375 18.980469 6.628906 18.652344 C 6.039062 18.101562 5.691406 17.367188 5.808594 16.476562 C 5.933594 15.558594 6.5625 14.9375 7.320312 14.535156 C 7.6875 14.339844 8.105469 14.183594 8.550781 14.0625 C 8.546875 11.550781 8.257812 9 7.835938 6.835938 C 7.554688 5.390625 7.214844 4.132812 6.871094 3.183594 C 6.695312 2.710938 6.523438 2.320312 6.363281 2.03125 C 6.195312 1.726562 6.0625 1.570312 5.976562 1.511719 C 5.867188 1.433594 5.609375 1.390625 5.101562 1.71875 C 4.625 2.023438 4.066406 2.582031 3.5 3.34375 Z M 8.535156 15.070312 C 8.230469 15.164062 7.953125 15.277344 7.707031 15.40625 C 7.074219 15.742188 6.75 16.152344 6.6875 16.617188 C 6.625 17.105469 6.792969 17.527344 7.207031 17.914062 C 7.445312 18.136719 7.761719 18.339844 8.144531 18.515625 C 8.261719 17.90625 8.363281 17.257812 8.445312 16.566406 C 8.488281 16.074219 8.519531 15.574219 8.535156 15.070312 Z M 8.988281 18.835938 C 9.050781 18.855469 9.109375 18.871094 9.171875 18.890625 C 10.882812 19.371094 13.175781 19.449219 15.226562 19.132812 C 15.234375 19.132812 15.242188 19.132812 15.246094 19.128906 C 16.6875 18.976562 17.96875 18.789062 19.128906 18.558594 C 18.351562 17.78125 17.609375 17.101562 16.960938 16.554688 C 16.128906 15.855469 15.484375 15.40625 15.121094 15.242188 C 14.636719 15.027344 13.875 14.847656 12.976562 14.753906 C 12.082031 14.65625 11.082031 14.648438 10.144531 14.753906 C 9.898438 14.78125 9.660156 14.8125 9.429688 14.855469 C 9.414062 15.464844 9.382812 16.070312 9.332031 16.667969 C 9.332031 16.671875 9.332031 16.679688 9.328125 16.6875 C 9.234375 17.445312 9.125 18.160156 8.988281 18.835938 Z M 20.964844 19.128906 C 21.507812 19.714844 22.050781 20.335938 22.582031 20.980469 C 22.46875 20.269531 22.378906 19.523438 22.320312 18.734375 C 21.886719 18.878906 21.433594 19.007812 20.964844 19.128906 Z M 20.964844 19.128906 "/>
</g>
</svg>
